<svg xmlns="http://www.w3.org/2000/svg" width="184.462" height="21" viewBox="0 0 184.462 21">
    <path id="prefix__logo" fill="#212121" d="M110.063 84.844v-9.188h9.187v9.188zm-11.813 0v-9.188h9.187v9.188zm143.661-10.57c0-4.992 3.889-8.569 9.241-8.569s9.241 3.6 9.241 8.569c0 4.993-3.889 8.665-9.241 8.665s-9.241-3.648-9.241-8.665zm5.713.024a3.808 3.808 0 0 0 3.6 4.009c1.92 0 3.456-1.7 3.456-4.009s-1.536-3.96-3.456-3.96a3.748 3.748 0 0 0-3.6 3.962zM229.98 82.7V65.87h5.57V82.7zm-100.049 0V65.87h5.57V82.7zm146.494 0l-2.016-4.369h-2.089V82.7h-5.568V65.874h8.137c4.56 0 7.177 2.184 7.177 6.025a5.848 5.848 0 0 1-2.664 5.329l3.312 5.472zm-4.1-8.592h2.569a1.8 1.8 0 0 0 1.9-2.04 1.763 1.763 0 0 0-1.9-1.968h-2.569zM217.457 82.7l-2.016-4.369h-2.089V82.7h-5.568V65.874h8.137c4.56 0 7.177 2.184 7.177 6.025a5.846 5.846 0 0 1-2.665 5.329l3.313 5.472zm-4.1-8.592h2.569a1.8 1.8 0 0 0 1.9-2.04 1.763 1.763 0 0 0-1.9-1.968h-2.569zM186.424 82.7V65.874h14.233V70.1h-8.665v2.065h7.873v4.224h-7.873v2.088h8.881V82.7zm-16.487 0V70.266h-4.776v-4.392h15.145v4.392h-4.8V82.7zm-15.551 0l-6.625-8.592V82.7H142.7V65.874h4.657L154 74.515v-8.641h5.041V82.7zm-44.323-9.668v-9.188h9.187v9.187zm-11.813 0v-9.188h9.187v9.187z" transform="translate(-98.25 -63.844)"/>
</svg>
